<svg xmlns="http://www.w3.org/2000/svg" viewBox="0 0 240 180"><rect width="240" height="180" rx="28" fill="#082836"/><path d="M25 120c43-19 91-18 144 0 26 9 43 8 58-2v62H25z" fill="#0bb8d4"/><path d="M37 51c51-34 107-34 157-2-25 9-50 20-75 48-24-27-52-39-82-46z" fill="#ffe600"/><path d="M37 51c53 3 105 2 157-2M119 97l-1 50" stroke="#fff8d8" stroke-width="4" fill="none"/><path d="M104 145c12 12 25 12 39 0" stroke="#ff7b1a" stroke-width="8" fill="none" stroke-linecap="round"/><text x="24" y="154" fill="#ffe600" font-family="Arial Black, sans-serif" font-size="25">KITE</text></svg>